<?xml version="1.0" encoding="UTF-8"?> <!-- Generator: Adobe Illustrator 25.0.0, SVG Export Plug-In . SVG Version: 6.00 Build 0) --> <svg xmlns="http://www.w3.org/2000/svg" xmlns:xlink="http://www.w3.org/1999/xlink" x="0px" y="0px" width="250px" height="250px" viewBox="0 0 250 250" style="enable-background:new 0 0 250 250;" xml:space="preserve"> <style type="text/css"> .st0{display:none;} .st1{display:inline;} .st2{fill:none;stroke:#000000;stroke-width:2;stroke-miterlimit:10;} .st3{fill:#A2D3E8;stroke:#000000;stroke-width:2;stroke-miterlimit:10;} .st4{fill:none;stroke:#A2D3E8;stroke-width:2;stroke-miterlimit:10;} .st5{fill:#FFD250;stroke:#000000;stroke-miterlimit:10;} .st6{fill:url(#SVGID_1_);stroke:#010002;stroke-width:2;stroke-miterlimit:10;} .st7{fill:#FFFFFF;stroke:#010002;stroke-width:2;stroke-miterlimit:10;} .st8{fill:url(#SVGID_2_);stroke:#010002;stroke-width:2;stroke-miterlimit:10;} .st9{fill:url(#SVGID_3_);} .st10{fill:url(#SVGID_4_);} .st11{fill:url(#SVGID_5_);} .st12{fill:url(#SVGID_6_);} .st13{fill:url(#SVGID_7_);} .st14{fill:url(#SVGID_8_);} .st15{fill:url(#SVGID_9_);} .st16{fill:url(#SVGID_10_);} .st17{fill:url(#SVGID_11_);} .st18{fill:url(#SVGID_12_);} .st19{fill:url(#SVGID_13_);} .st20{fill:url(#SVGID_14_);} .st21{fill:url(#SVGID_15_);} .st22{fill:url(#SVGID_16_);} .st23{fill:url(#SVGID_17_);} .st24{fill:url(#SVGID_18_);} .st25{fill:url(#SVGID_19_);} .st26{fill:url(#SVGID_20_);} .st27{fill:url(#SVGID_21_);} </style> <g id="Livello_2" class="st0"> <g id="_x32_EWbKO_1_" class="st1"> <image style="overflow:visible;" width="990" height="542" id="_x32_EWbKO_2_" xlink:href="4C72DAF0C090530E.png" transform="matrix(1 0 0 1 -740 -286.8824)"> </image> </g> </g> <g id="Livello_1"> <g> <path class="st2" d="M38.2,240h-0.7C22.3,240,10,227.7,10,212.5v-175C10,22.3,22.3,10,37.5,10h0.7c15.2,0,27.5,12.3,27.5,27.5v175 C65.7,227.7,53.3,240,38.2,240z"></path> <path class="st3" d="M10,57.4V37.5C10,22.3,22.3,10,37.5,10h0.7c15.2,0,27.5,12.3,27.5,27.5v19.9H10z"></path> <path class="st4" d="M59.7,208.8c0,13.3-10.7,24-24,24h0"></path> <g> <path class="st5" d="M27.8,206.2C27.8,206.2,27.8,206.1,27.8,206.2c0-3.8,2.1-12.3,5.4-18.3l9.6-0.1c3.2,5.9,5.1,14.3,5.1,18.1 c0,2.7-1.1,5.2-3,7.1l0,0c-1.9,1.9-4.4,3-7.1,3C32.2,216.1,27.8,211.7,27.8,206.2z"></path> <polyline class="st5" points="42.8,187.8 42.8,69 33.2,69 33.2,187.8 "></polyline> </g> </g> <g> <g> <linearGradient id="SVGID_1_" gradientUnits="userSpaceOnUse" x1="70.6525" y1="104.47" x2="198.9005" y2="104.47"> <stop offset="0" style="stop-color:#99C6D6"></stop> <stop offset="0.267" style="stop-color:#9FD0E4"></stop> <stop offset="0.503" style="stop-color:#A2D4EA"></stop> <stop offset="0.725" style="stop-color:#A0D1E6"></stop> <stop offset="0.961" style="stop-color:#9AC8D9"></stop> <stop offset="1" style="stop-color:#99C6D6"></stop> </linearGradient> <path class="st6" d="M70.7,104.5c0-35.4,28.8-64.1,64.1-64.1c35.4,0,64.1,28.8,64.1,64.1c0,17-6.7,32.4-17.5,43.8 c-0.1,0-0.1,0.1-0.2,0.1c-0.1,0.1-0.1,0.2-0.2,0.2c-11.7,12.2-28.1,19.9-46.3,19.9C99.4,168.6,70.7,139.8,70.7,104.5z"></path> <path class="st7" d="M78.3,104.5c0-31.2,25.3-56.5,56.5-56.5c31.2,0,56.5,25.3,56.5,56.5c0,14.9-5.9,28.5-15.4,38.6 c0,0-0.1,0.1-0.1,0.1c-0.1,0.1-0.1,0.2-0.1,0.2c-10.3,10.8-24.8,17.6-40.8,17.6C103.6,161,78.3,135.6,78.3,104.5z"></path> <linearGradient id="SVGID_2_" gradientUnits="userSpaceOnUse" x1="182.1165" y1="180.7303" x2="240" y2="180.7303"> <stop offset="0" style="stop-color:#83161F"></stop> <stop offset="1.900000e-02" style="stop-color:#84161F"></stop> <stop offset="0.629" style="stop-color:#9D1C21"></stop> <stop offset="1" style="stop-color:#A61E22"></stop> </linearGradient> <path class="st8" d="M238.5,208.2c-1.9,1.9-5.3,1.9-7.2,0l-47.7-47.7c-2-2-2-5.2,0-7.2c1-1,2.2-1.5,3.6-1.5 c1.4,0,2.6,0.5,3.6,1.5l47.7,47.7c1,1,1.5,2.2,1.5,3.6C240,206,239.5,207.2,238.5,208.2z"></path> </g> <g> <linearGradient id="SVGID_3_" gradientUnits="userSpaceOnUse" x1="143.2151" y1="111.513" x2="150.484" y2="111.513"> <stop offset="0" style="stop-color:#83161F"></stop> <stop offset="1.900000e-02" style="stop-color:#84161F"></stop> <stop offset="0.629" style="stop-color:#9D1C21"></stop> <stop offset="1" style="stop-color:#A61E22"></stop> </linearGradient> <path class="st9" d="M149.4,108.9c-0.7-0.7-1.6-1.1-2.6-1.1c-1,0-1.9,0.4-2.6,1.1c-0.7,0.7-1.1,1.6-1.1,2.6c0,1,0.4,1.9,1.1,2.6 c0.7,0.7,1.6,1.1,2.6,1.1c1,0,1.9-0.4,2.6-1.1s1.1-1.6,1.1-2.6C150.5,110.5,150.1,109.6,149.4,108.9L149.4,108.9z M147.8,112.4 c-0.2,0.2-0.6,0.4-0.9,0.4s-0.7-0.1-0.9-0.4c-0.2-0.2-0.4-0.6-0.4-0.9c0-0.4,0.1-0.7,0.4-0.9s0.6-0.4,0.9-0.4s0.7,0.1,0.9,0.4 c0.2,0.2,0.4,0.6,0.4,0.9C148.2,111.9,148,112.2,147.8,112.4z"></path> <linearGradient id="SVGID_4_" gradientUnits="userSpaceOnUse" x1="130.8367" y1="111.5131" x2="138.102" y2="111.5131"> <stop offset="0" style="stop-color:#83161F"></stop> <stop offset="1.900000e-02" style="stop-color:#84161F"></stop> <stop offset="0.629" style="stop-color:#9D1C21"></stop> <stop offset="1" style="stop-color:#A61E22"></stop> </linearGradient> <path class="st10" d="M134.5,115.1c0.9,0,1.9-0.4,2.6-1.1c1.4-1.4,1.4-3.7,0-5.1c-1.4-1.4-3.7-1.4-5.1,0c-1.4,1.4-1.4,3.7,0,5.1 C132.6,114.8,133.5,115.1,134.5,115.1z M133.5,110.6c0.5-0.5,1.3-0.5,1.9,0c0.5,0.5,0.5,1.3,0,1.9c-0.5,0.5-1.3,0.5-1.9,0 C133,111.9,133,111.1,133.5,110.6z"></path> <linearGradient id="SVGID_5_" gradientUnits="userSpaceOnUse" x1="143.2151" y1="123.8931" x2="150.484" y2="123.8931"> <stop offset="0" style="stop-color:#83161F"></stop> <stop offset="1.900000e-02" style="stop-color:#84161F"></stop> <stop offset="0.629" style="stop-color:#9D1C21"></stop> <stop offset="1" style="stop-color:#A61E22"></stop> </linearGradient> <path class="st11" d="M146.8,127.5c1,0,1.9-0.4,2.6-1.1c0.7-0.7,1.1-1.6,1.1-2.6s-0.4-1.9-1.1-2.6c-0.7-0.7-1.6-1.1-2.6-1.1 c-1,0-1.9,0.4-2.6,1.1c-0.7,0.7-1.1,1.6-1.1,2.6c0,1,0.4,1.9,1.1,2.6C145,127.1,145.9,127.5,146.8,127.5L146.8,127.5z M145.9,123 c0.2-0.2,0.6-0.4,0.9-0.4c0.4,0,0.7,0.1,0.9,0.4c0.2,0.2,0.4,0.6,0.4,0.9c0,0.4-0.1,0.7-0.4,0.9c-0.2,0.2-0.6,0.4-0.9,0.4 c-0.4,0-0.7-0.1-0.9-0.4c-0.2-0.2-0.4-0.6-0.4-0.9C145.5,123.5,145.7,123.2,145.9,123L145.9,123z"></path> <linearGradient id="SVGID_6_" gradientUnits="userSpaceOnUse" x1="130.8367" y1="124.255" x2="137.3785" y2="124.255"> <stop offset="0" style="stop-color:#83161F"></stop> <stop offset="1.900000e-02" style="stop-color:#84161F"></stop> <stop offset="0.629" style="stop-color:#9D1C21"></stop> <stop offset="1" style="stop-color:#A61E22"></stop> </linearGradient> <path class="st12" d="M131.9,126.5c0.7,0.7,1.6,1.1,2.6,1.1s1.9-0.4,2.6-1.1c0.5-0.5,0.5-1.2,0-1.6c-0.5-0.5-1.2-0.5-1.6,0 c-0.5,0.5-1.3,0.5-1.9,0c-0.5-0.5-0.5-1.3,0-1.9c0.5-0.5,0.5-1.2,0-1.6s-1.2-0.5-1.6,0C130.5,122.7,130.5,125,131.9,126.5 L131.9,126.5z"></path> <linearGradient id="SVGID_7_" gradientUnits="userSpaceOnUse" x1="137.0252" y1="117.7031" x2="144.2938" y2="117.7031"> <stop offset="0" style="stop-color:#83161F"></stop> <stop offset="1.900000e-02" style="stop-color:#84161F"></stop> <stop offset="0.629" style="stop-color:#9D1C21"></stop> <stop offset="1" style="stop-color:#A61E22"></stop> </linearGradient> <path class="st13" d="M144.3,117.7c0-2-1.6-3.6-3.6-3.6s-3.6,1.6-3.6,3.6s1.6,3.6,3.6,3.6S144.3,119.7,144.3,117.7z M140.7,119 c-0.7,0-1.3-0.6-1.3-1.3c0-0.7,0.6-1.3,1.3-1.3c0.7,0,1.3,0.6,1.3,1.3C142,118.4,141.4,119,140.7,119z"></path> <linearGradient id="SVGID_8_" gradientUnits="userSpaceOnUse" x1="113.5027" y1="117.703" x2="167.8165" y2="117.703"> <stop offset="0" style="stop-color:#83161F"></stop> <stop offset="1.900000e-02" style="stop-color:#84161F"></stop> <stop offset="0.629" style="stop-color:#9D1C21"></stop> <stop offset="1" style="stop-color:#A61E22"></stop> </linearGradient> <path class="st14" d="M164.2,114.1c-1.6,0-3,1-3.4,2.5h-2.9c0-0.7-0.1-1.5-0.3-2.2l1.3-0.4c0.6-0.2,1-0.8,0.8-1.4s-0.8-1-1.4-0.8 l-1.3,0.4c-0.2-0.7-0.5-1.4-0.8-2l2.5-1.4c0.4,0.4,0.9,0.6,1.5,0.8c0.3,0.1,0.6,0.1,0.9,0.1c0.6,0,1.3-0.2,1.8-0.5 c1.7-1,2.3-3.2,1.3-5c-1-1.7-3.2-2.3-5-1.3c-1.4,0.8-2,2.4-1.7,3.9l-2.5,1.4c-0.4-0.6-0.9-1.2-1.3-1.7l1-1c0.5-0.5,0.5-1.2,0-1.6 c-0.5-0.5-1.2-0.5-1.6,0l-1,1c-0.5-0.5-1.1-0.9-1.7-1.3l1.4-2.5c0.2,0,0.5,0.1,0.7,0.1c1.3,0,2.5-0.7,3.2-1.8c1-1.7,0.4-4-1.3-5 c-1.7-1-4-0.4-5,1.3c-0.5,0.8-0.6,1.8-0.4,2.8c0.1,0.6,0.4,1,0.8,1.5l-2,3.5c-0.3,0.6-0.1,1.3,0.4,1.6c0,0,0,0,0,0 c4.6,2.7,7.4,7.6,7.4,12.9c0,8.2-6.7,14.9-14.9,14.9c-8.2,0-14.9-6.7-14.9-14.9s6.7-14.9,14.9-14.9c1.3,0,2.6,0.2,3.9,0.5 c0.6,0.2,1.3-0.2,1.4-0.8c0,0,0.6-2.4,0.6-2.4c0.2-0.6-0.2-1.3-0.8-1.4c-0.6-0.2-1.3,0.2-1.4,0.8l-0.4,1.3 c-0.7-0.1-1.4-0.2-2.2-0.3v-2.9c1.4-0.5,2.5-1.8,2.5-3.4c0-2-1.6-3.6-3.6-3.6s-3.6,1.6-3.6,3.6c0,1.6,1,3,2.5,3.4v2.9 c-0.7,0-1.5,0.1-2.2,0.3l-0.4-1.3c-0.2-0.6-0.8-1-1.4-0.8c-0.6,0.2-1,0.8-0.8,1.4l0.4,1.3c-0.7,0.2-1.4,0.5-2,0.8l-1.4-2.5 c0.4-0.4,0.6-0.9,0.8-1.5c0.3-0.9,0.1-1.9-0.4-2.8c-0.5-0.8-1.3-1.4-2.2-1.7c-0.9-0.3-1.9-0.1-2.8,0.4c-1.7,1-2.3,3.2-1.3,5 c0.5,0.8,1.3,1.4,2.2,1.7c0.3,0.1,0.6,0.1,0.9,0.1c0.2,0,0.5,0,0.7-0.1l1.4,2.5c-0.6,0.4-1.2,0.9-1.7,1.3l-1-1 c-0.5-0.5-1.2-0.5-1.6,0c-0.5,0.5-0.5,1.2,0,1.6l1,1c-0.5,0.6-0.9,1.1-1.3,1.7l-2.5-1.4c0.3-1.5-0.4-3.1-1.7-3.9 c-0.8-0.5-1.8-0.6-2.8-0.4c-0.9,0.3-1.7,0.9-2.2,1.7c-0.5,0.8-0.6,1.8-0.4,2.8c0.3,0.9,0.9,1.7,1.7,2.2c0.6,0.3,1.2,0.5,1.8,0.5 c0.3,0,0.6,0,0.9-0.1c0.6-0.1,1-0.4,1.5-0.8l2.5,1.4c-0.3,0.7-0.6,1.3-0.8,2l-1.3-0.4c-0.6-0.2-1.3,0.2-1.4,0.8 c-0.2,0.6,0.2,1.3,0.8,1.4l1.3,0.4c-0.1,0.7-0.2,1.4-0.3,2.2h-2.9c-0.5-1.4-1.8-2.5-3.4-2.5c-2,0-3.6,1.6-3.6,3.6 s1.6,3.6,3.6,3.6c1.6,0,3-1,3.4-2.5h2.9c0,0.7,0.1,1.5,0.3,2.2l-1.3,0.4c-0.6,0.2-1,0.8-0.8,1.4c0.1,0.5,0.6,0.9,1.1,0.9 c0.1,0,0.2,0,0.3,0l1.3-0.4c0.2,0.7,0.5,1.4,0.8,2l-2.5,1.4c-1.1-1-2.8-1.2-4.2-0.4c-1.7,1-2.3,3.2-1.3,5 c0.7,1.2,1.9,1.8,3.2,1.8c0.6,0,1.2-0.2,1.8-0.5c1.4-0.8,2-2.4,1.7-3.9l2.5-1.4c0.4,0.6,0.9,1.2,1.3,1.7l-1,1 c-0.5,0.5-0.5,1.2,0,1.6c0.2,0.2,0.5,0.3,0.8,0.3s0.6-0.1,0.8-0.3l1-1c0.6,0.5,1.1,0.9,1.7,1.3l-1.4,2.5 c-1.5-0.3-3.1,0.4-3.9,1.7c-0.5,0.8-0.6,1.8-0.4,2.8c0.3,0.9,0.9,1.7,1.7,2.2c0.6,0.3,1.2,0.5,1.8,0.5c0.3,0,0.6,0,0.9-0.1 c0.9-0.3,1.7-0.9,2.2-1.7c0.8-1.4,0.6-3.1-0.4-4.2l1.4-2.5c0.7,0.3,1.3,0.6,2,0.8l-0.4,1.3c-0.2,0.6,0.2,1.3,0.8,1.4 c0.1,0,0.2,0,0.3,0c0.5,0,1-0.3,1.1-0.9l0.4-1.3c0.7,0.1,1.4,0.2,2.2,0.3v2.9c-1.4,0.5-2.5,1.8-2.5,3.4c0,2,1.6,3.6,3.6,3.6 s3.6-1.6,3.6-3.6c0-1.6-1-3-2.5-3.4v-2.9c0.7,0,1.5-0.1,2.2-0.3l0.4,1.3c0.1,0.5,0.6,0.9,1.1,0.9c0.1,0,0.2,0,0.3,0 c0.6-0.2,1-0.8,0.8-1.4l-0.4-1.3c0.7-0.2,1.4-0.5,2-0.8l1.4,2.5c-1,1.1-1.2,2.8-0.4,4.2c0.7,1.2,1.9,1.8,3.2,1.8 c0.6,0,1.2-0.2,1.8-0.5c1.7-1,2.3-3.2,1.3-5c-0.8-1.4-2.4-2-3.9-1.7l-1.4-2.5c0.6-0.4,1.2-0.9,1.7-1.3l1,1 c0.2,0.2,0.5,0.3,0.8,0.3c0.3,0,0.6-0.1,0.8-0.3c0.5-0.5,0.5-1.2,0-1.6l-1-1c0.5-0.6,0.9-1.1,1.3-1.7l2.5,1.4 c-0.3,1.5,0.4,3.1,1.7,3.9c0.6,0.3,1.2,0.5,1.8,0.5c1.3,0,2.5-0.7,3.2-1.8c1-1.7,0.4-4-1.3-5c-1.4-0.8-3.1-0.6-4.2,0.4l-2.5-1.4 c0.3-0.7,0.6-1.3,0.8-2l1.3,0.4c0.1,0,0.2,0,0.3,0c0.5,0,1-0.3,1.1-0.9c0.2-0.6-0.2-1.3-0.8-1.4l-1.3-0.4 c0.1-0.7,0.2-1.4,0.3-2.2h2.9c0.5,1.4,1.8,2.5,3.4,2.5c2,0,3.6-1.6,3.6-3.6S166.2,114.1,164.2,114.1L164.2,114.1z M159.8,105.6 c0.1-0.3,0.3-0.6,0.6-0.8c0.6-0.4,1.4-0.1,1.8,0.5c0.4,0.6,0.1,1.4-0.5,1.8c-0.3,0.2-0.7,0.2-1,0.1c-0.3-0.1-0.6-0.3-0.8-0.6 C159.7,106.3,159.7,105.9,159.8,105.6L159.8,105.6z M128.6,98.6c-0.3-0.1-0.6-0.3-0.8-0.6c-0.2-0.3-0.2-0.7-0.1-1 c0.1-0.3,0.3-0.6,0.6-0.8c0.2-0.1,0.4-0.2,0.7-0.2c0.1,0,0.2,0,0.3,0c0.3,0.1,0.6,0.3,0.8,0.6c0.2,0.3,0.2,0.7,0.1,1 c-0.1,0.3-0.3,0.6-0.6,0.8C129.3,98.6,128.9,98.7,128.6,98.6L128.6,98.6z M120.6,107.2c-0.3,0.1-0.7,0-1-0.1 c-0.3-0.2-0.5-0.5-0.6-0.8c-0.1-0.3,0-0.7,0.1-1c0.2-0.3,0.5-0.5,0.8-0.6c0.1,0,0.2,0,0.3,0c0.2,0,0.5,0.1,0.7,0.2 c0.3,0.2,0.5,0.5,0.6,0.8c0.1,0.3,0,0.7-0.1,1C121.3,106.9,121,107.1,120.6,107.2L120.6,107.2z M120.9,130.6 c-0.6,0.4-1.4,0.1-1.8-0.5c-0.2-0.3-0.2-0.7-0.1-1c0.1-0.3,0.3-0.6,0.6-0.8c0.2-0.1,0.4-0.2,0.7-0.2c0.1,0,0.2,0,0.3,0 c0.3,0.1,0.6,0.3,0.8,0.6C121.8,129.4,121.6,130.2,120.9,130.6L120.9,130.6z M130,138.7c-0.2,0.3-0.5,0.5-0.8,0.6 c-0.3,0.1-0.7,0-1-0.1s-0.5-0.5-0.6-0.8c-0.1-0.3,0-0.7,0.1-1c0.2-0.3,0.5-0.5,0.8-0.6c0.3-0.1,0.7,0,1,0.1s0.5,0.5,0.6,0.8 C130.3,138.1,130.2,138.4,130,138.7z M153.6,137.4c0.4,0.6,0.1,1.4-0.5,1.8c-0.6,0.4-1.4,0.1-1.8-0.5c-0.2-0.3-0.2-0.7-0.1-1 c0.1-0.3,0.3-0.6,0.6-0.8c0.2-0.1,0.4-0.2,0.7-0.2C152.9,136.8,153.3,137,153.6,137.4L153.6,137.4z M160.7,128.2 c0.3-0.1,0.7,0,1,0.1c0.6,0.4,0.8,1.2,0.5,1.8c-0.4,0.6-1.2,0.8-1.8,0.5c-0.6-0.4-0.8-1.2-0.5-1.8 C160.1,128.5,160.3,128.3,160.7,128.2L160.7,128.2z M151.3,96.7c0.2-0.4,0.7-0.7,1.1-0.7c0.2,0,0.4,0.1,0.7,0.2 c0.6,0.4,0.8,1.2,0.5,1.8c-0.4,0.6-1.2,0.8-1.8,0.5c-0.3-0.2-0.5-0.5-0.6-0.8C151.1,97.3,151.1,97,151.3,96.7L151.3,96.7z M140.7,92.9c0.7,0,1.3,0.6,1.3,1.3c0,0.7-0.6,1.3-1.3,1.3c-0.7,0-1.3-0.6-1.3-1.3C139.3,93.5,139.9,92.9,140.7,92.9z M117.1,119 c-0.7,0-1.3-0.6-1.3-1.3c0-0.7,0.6-1.3,1.3-1.3c0.7,0,1.3,0.6,1.3,1.3C118.5,118.4,117.9,119,117.1,119z M140.7,142.5 c-0.7,0-1.3-0.6-1.3-1.3c0-0.7,0.6-1.3,1.3-1.3c0.7,0,1.3,0.6,1.3,1.3C142,142,141.4,142.5,140.7,142.5z M164.2,119 c-0.7,0-1.3-0.6-1.3-1.3c0-0.7,0.6-1.3,1.3-1.3c0.7,0,1.3,0.6,1.3,1.3C165.5,118.4,164.9,119,164.2,119z"></path> <linearGradient id="SVGID_9_" gradientUnits="userSpaceOnUse" x1="139.495" y1="106.5609" x2="141.8178" y2="106.5609"> <stop offset="0" style="stop-color:#83161F"></stop> <stop offset="1.900000e-02" style="stop-color:#84161F"></stop> <stop offset="0.629" style="stop-color:#9D1C21"></stop> <stop offset="1" style="stop-color:#A61E22"></stop> </linearGradient> <path class="st15" d="M141.8,106.6c0-0.6-0.5-1.2-1.2-1.2h0c-0.6,0-1.2,0.5-1.2,1.2s0.5,1.2,1.2,1.2S141.8,107.2,141.8,106.6 L141.8,106.6z"></path> <linearGradient id="SVGID_10_" gradientUnits="userSpaceOnUse" x1="128.3651" y1="117.7031" x2="130.688" y2="117.7031"> <stop offset="0" style="stop-color:#83161F"></stop> <stop offset="1.900000e-02" style="stop-color:#84161F"></stop> <stop offset="0.629" style="stop-color:#9D1C21"></stop> <stop offset="1" style="stop-color:#A61E22"></stop> </linearGradient> <path class="st16" d="M129.5,116.5c-0.6,0-1.2,0.5-1.2,1.2c0,0.6,0.5,1.2,1.2,1.2c0.6,0,1.2-0.5,1.2-1.2 C130.7,117.1,130.2,116.5,129.5,116.5L129.5,116.5z"></path> <linearGradient id="SVGID_11_" gradientUnits="userSpaceOnUse" x1="150.6372" y1="117.7031" x2="152.96" y2="117.7031"> <stop offset="0" style="stop-color:#83161F"></stop> <stop offset="1.900000e-02" style="stop-color:#84161F"></stop> <stop offset="0.629" style="stop-color:#9D1C21"></stop> <stop offset="1" style="stop-color:#A61E22"></stop> </linearGradient> <path class="st17" d="M153,117.7c0-0.6-0.5-1.2-1.2-1.2h0c-0.6,0-1.2,0.5-1.2,1.2c0,0.6,0.5,1.2,1.2,1.2S153,118.3,153,117.7 L153,117.7z"></path> <linearGradient id="SVGID_12_" gradientUnits="userSpaceOnUse" x1="139.5074" y1="128.8454" x2="141.8302" y2="128.8454"> <stop offset="0" style="stop-color:#83161F"></stop> <stop offset="1.900000e-02" style="stop-color:#84161F"></stop> <stop offset="0.629" style="stop-color:#9D1C21"></stop> <stop offset="1" style="stop-color:#A61E22"></stop> </linearGradient> <path class="st18" d="M140.7,127.7c-0.6,0-1.2,0.5-1.2,1.2c0,0.6,0.5,1.2,1.2,1.2s1.2-0.5,1.2-1.2 C141.8,128.2,141.3,127.7,140.7,127.7L140.7,127.7z"></path> <linearGradient id="SVGID_13_" gradientUnits="userSpaceOnUse" x1="96.1704" y1="81.8006" x2="128.1994" y2="81.8006"> <stop offset="0" style="stop-color:#83161F"></stop> <stop offset="1.900000e-02" style="stop-color:#84161F"></stop> <stop offset="0.629" style="stop-color:#9D1C21"></stop> <stop offset="1" style="stop-color:#A61E22"></stop> </linearGradient> <path class="st19" d="M116.7,91.9l1.9,3.3c0.2,0.4,0.6,0.6,1,0.6c0.2,0,0.4-0.1,0.6-0.2c0.6-0.3,0.7-1,0.4-1.6l-1.9-3.3 c0.9-0.7,1.8-1.5,2.4-2.4l3.3,1.9c0.2,0.1,0.4,0.2,0.6,0.2c0.4,0,0.8-0.2,1-0.6c0.3-0.6,0.1-1.3-0.4-1.6l-3.3-1.9 c0.5-1,0.8-2.2,0.9-3.3h3.9c0.6,0,1.2-0.5,1.2-1.2c0-0.6-0.5-1.2-1.2-1.2h-3.9c-0.1-1.2-0.4-2.3-0.9-3.3l3.3-1.9 c0.6-0.3,0.7-1,0.4-1.6c-0.3-0.6-1-0.7-1.6-0.4l-3.3,1.9c-0.7-0.9-1.5-1.8-2.4-2.4l1.9-3.3c0.3-0.6,0.1-1.3-0.4-1.6 c-0.6-0.3-1.3-0.1-1.6,0.4l-1.9,3.3c-1-0.5-2.2-0.8-3.3-0.9v-3.9c0-0.6-0.5-1.2-1.2-1.2s-1.2,0.5-1.2,1.2v3.9 c-1.2,0.1-2.3,0.4-3.3,0.9l-1.9-3.3c-0.3-0.6-1-0.7-1.6-0.4c-0.6,0.3-0.7,1-0.4,1.6l1.9,3.3c-0.9,0.7-1.8,1.5-2.4,2.4l-3.3-1.9 c-0.6-0.3-1.3-0.1-1.6,0.4c-0.3,0.6-0.1,1.3,0.4,1.6l3.3,1.9c-0.5,1-0.8,2.2-0.9,3.3h-3.9c-0.6,0-1.2,0.5-1.2,1.2 c0,0.6,0.5,1.2,1.2,1.2h3.9c0.1,1.2,0.4,2.3,0.9,3.3l-3.3,1.9c-0.6,0.3-0.7,1-0.4,1.6c0.2,0.4,0.6,0.6,1,0.6 c0.2,0,0.4-0.1,0.6-0.2l4.3-2.5l0,0c0.6-0.3,0.7-1,0.4-1.6c-0.8-1.3-1.2-2.8-1.2-4.4c0-4.8,3.9-8.7,8.7-8.7s8.7,3.9,8.7,8.7 c0,4.8-3.9,8.7-8.7,8.7c-1.5,0-3.1-0.4-4.4-1.2c-0.6-0.3-1.3-0.1-1.6,0.4l0,0l-2.5,4.3c-0.3,0.6-0.1,1.3,0.4,1.6 c0.2,0.1,0.4,0.2,0.6,0.2c0.4,0,0.8-0.2,1-0.6l1.9-3.3c1.1,0.5,2.2,0.8,3.3,0.9v3.9c0,0.6,0.5,1.2,1.2,1.2c0.6,0,1.2-0.5,1.2-1.2 v-3.9C114.5,92.7,115.6,92.4,116.7,91.9L116.7,91.9z"></path> <linearGradient id="SVGID_14_" gradientUnits="userSpaceOnUse" x1="111.0267" y1="77.4675" x2="113.3434" y2="77.4675"> <stop offset="0" style="stop-color:#83161F"></stop> <stop offset="1.900000e-02" style="stop-color:#84161F"></stop> <stop offset="0.629" style="stop-color:#9D1C21"></stop> <stop offset="1" style="stop-color:#A61E22"></stop> </linearGradient> <path class="st20" d="M112.2,79.2c0.6,0,1.2-0.5,1.2-1.2v-1.2c0-0.6-0.5-1.2-1.2-1.2s-1.2,0.5-1.2,1.2v1.2 C111,78.7,111.5,79.2,112.2,79.2z"></path> <linearGradient id="SVGID_15_" gradientUnits="userSpaceOnUse" x1="111.0267" y1="86.1336" x2="113.3434" y2="86.1336"> <stop offset="0" style="stop-color:#83161F"></stop> <stop offset="1.900000e-02" style="stop-color:#84161F"></stop> <stop offset="0.629" style="stop-color:#9D1C21"></stop> <stop offset="1" style="stop-color:#A61E22"></stop> </linearGradient> <path class="st21" d="M111,86.8c0,0.6,0.5,1.2,1.2,1.2s1.2-0.5,1.2-1.2v-1.2c0-0.6-0.5-1.2-1.2-1.2s-1.2,0.5-1.2,1.2V86.8z"></path> <linearGradient id="SVGID_16_" gradientUnits="userSpaceOnUse" x1="114.7407" y1="81.8004" x2="118.2954" y2="81.8004"> <stop offset="0" style="stop-color:#83161F"></stop> <stop offset="1.900000e-02" style="stop-color:#84161F"></stop> <stop offset="0.629" style="stop-color:#9D1C21"></stop> <stop offset="1" style="stop-color:#A61E22"></stop> </linearGradient> <path class="st22" d="M117.1,83c0.6,0,1.2-0.5,1.2-1.2c0-0.6-0.5-1.2-1.2-1.2h-1.2c-0.6,0-1.2,0.5-1.2,1.2c0,0.6,0.5,1.2,1.2,1.2 H117.1z"></path> <linearGradient id="SVGID_17_" gradientUnits="userSpaceOnUse" x1="106.0746" y1="81.8004" x2="109.6292" y2="81.8004"> <stop offset="0" style="stop-color:#83161F"></stop> <stop offset="1.900000e-02" style="stop-color:#84161F"></stop> <stop offset="0.629" style="stop-color:#9D1C21"></stop> <stop offset="1" style="stop-color:#A61E22"></stop> </linearGradient> <path class="st23" d="M107.2,83h1.2c0.6,0,1.2-0.5,1.2-1.2c0-0.6-0.5-1.2-1.2-1.2h-1.2c-0.6,0-1.2,0.5-1.2,1.2 C106.1,82.4,106.6,83,107.2,83z"></path> <linearGradient id="SVGID_18_" gradientUnits="userSpaceOnUse" x1="146.9295" y1="78.0864" x2="171.5302" y2="78.0864"> <stop offset="0" style="stop-color:#83161F"></stop> <stop offset="1.900000e-02" style="stop-color:#84161F"></stop> <stop offset="0.629" style="stop-color:#9D1C21"></stop> <stop offset="1" style="stop-color:#A61E22"></stop> </linearGradient> <path class="st24" d="M170.4,76.9h-2.6c-0.2-1.5-0.8-2.9-1.7-4l1.9-1.9c0.5-0.5,0.5-1.2,0-1.6c-0.5-0.5-1.2-0.5-1.6,0l-2.6,2.6 l0,0c-0.5,0.5-0.5,1.2,0,1.6c1.2,1.2,1.8,2.8,1.8,4.4c0,3.5-2.8,6.3-6.3,6.3s-6.3-2.8-6.3-6.3c0-3.5,2.8-6.3,6.3-6.3 c0.4,0,0.8,0,1.1,0.1c0.6,0.1,1.2-0.3,1.3-0.9c0.1-0.6-0.3-1.2-0.9-1.3c-0.1,0-0.3,0-0.4-0.1v-2.6c0-0.6-0.5-1.2-1.2-1.2 s-1.2,0.5-1.2,1.2v2.6c-1.5,0.2-2.9,0.8-4,1.7l-1.9-1.9c-0.5-0.5-1.2-0.5-1.6,0c-0.5,0.5-0.5,1.2,0,1.6l1.9,1.9 c-0.9,1.2-1.5,2.5-1.7,4h-2.6c-0.6,0-1.2,0.5-1.2,1.2c0,0.6,0.5,1.2,1.2,1.2h2.6c0.2,1.5,0.8,2.9,1.7,4l-1.9,1.9 c-0.5,0.5-0.5,1.2,0,1.6c0.2,0.2,0.5,0.3,0.8,0.3s0.6-0.1,0.8-0.3l1.9-1.9c1.2,0.9,2.5,1.5,4,1.7v2.6c0,0.6,0.5,1.2,1.2,1.2 s1.2-0.5,1.2-1.2v-2.6c1.5-0.2,2.9-0.8,4-1.7l1.9,1.9c0.2,0.2,0.5,0.3,0.8,0.3s0.6-0.1,0.8-0.3c0.5-0.5,0.5-1.2,0-1.6l-1.9-1.9 c0.9-1.2,1.5-2.5,1.7-4h2.6c0.6,0,1.2-0.5,1.2-1.2C171.5,77.4,171,76.9,170.4,76.9z"></path> <linearGradient id="SVGID_19_" gradientUnits="userSpaceOnUse" x1="160.5414" y1="76.8484" x2="162.8642" y2="76.8484"> <stop offset="0" style="stop-color:#83161F"></stop> <stop offset="1.900000e-02" style="stop-color:#84161F"></stop> <stop offset="0.629" style="stop-color:#9D1C21"></stop> <stop offset="1" style="stop-color:#A61E22"></stop> </linearGradient> <path class="st25" d="M161.7,75.7c-0.6,0-1.2,0.5-1.2,1.2c0,0.6,0.5,1.2,1.2,1.2c0.6,0,1.2-0.5,1.2-1.2 C162.9,76.2,162.3,75.7,161.7,75.7L161.7,75.7z"></path> <linearGradient id="SVGID_20_" gradientUnits="userSpaceOnUse" x1="158.0654" y1="80.5626" x2="160.3882" y2="80.5626"> <stop offset="0" style="stop-color:#83161F"></stop> <stop offset="1.900000e-02" style="stop-color:#84161F"></stop> <stop offset="0.629" style="stop-color:#9D1C21"></stop> <stop offset="1" style="stop-color:#A61E22"></stop> </linearGradient> <path class="st26" d="M159.2,79.4L159.2,79.4c-0.7,0-1.2,0.5-1.2,1.2c0,0.6,0.5,1.2,1.2,1.2s1.2-0.5,1.2-1.2 C160.4,79.9,159.9,79.4,159.2,79.4L159.2,79.4z"></path> <linearGradient id="SVGID_21_" gradientUnits="userSpaceOnUse" x1="155.5892" y1="76.8484" x2="157.912" y2="76.8484"> <stop offset="0" style="stop-color:#83161F"></stop> <stop offset="1.900000e-02" style="stop-color:#84161F"></stop> <stop offset="0.629" style="stop-color:#9D1C21"></stop> <stop offset="1" style="stop-color:#A61E22"></stop> </linearGradient> <path class="st27" d="M156.7,75.7c-0.6,0-1.2,0.5-1.2,1.2c0,0.6,0.5,1.2,1.2,1.2s1.2-0.5,1.2-1.2 C157.9,76.2,157.4,75.7,156.7,75.7L156.7,75.7z"></path> </g> </g> </g> </svg> 